<svg xmlns="http://www.w3.org/2000/svg" xmlns:xlink="http://www.w3.org/1999/xlink" width="622.758" height="337.507" viewBox="0 0 622.758 337.507"><defs><style>.a,.j{fill:#e4eec8;}.a{stroke:#707070;}.b,.k{fill:none;}.c{fill:#aab9ff;}.d{fill:#bdde98;}.e{fill:#fbd866;}.f{fill:#f3f4ff;}.g{fill:#fff;}.h,.i{isolation:isolate;}.h{clip-path:url(#a);}.i{mix-blend-mode:luminosity;}.k{stroke:#8dcc69;stroke-linecap:round;}.l{fill:#34253d;}.m{fill:#a69030;}.n{fill:#b37475;stroke:rgba(0,0,0,0);stroke-miterlimit:10;}.o{fill:#ce4c58;}.p{clip-path:url(#b);}.q{fill:#ff6876;}.r{fill:#e24957;}.s,.v{fill:#e6956e;}.t{fill:#ffc9b3;}.u,.w{fill:#604549;}.u,.v,.x{fill-rule:evenodd;}.ac,.x{fill:#303032;}.y{clip-path:url(#c);}.z{fill:#536ad6;}.aa{fill:#4863db;}.ab{fill:#273fab;}.ad{fill:#636253;}.ae{clip-path:url(#d);}.af{fill:#005c54;}.ag{clip-path:url(#e);}.ah{fill:#9b9b9b;}.ai{fill:#6a6a6a;}.aj{fill:#b9b9b9;}.ak{opacity:0.48;}.al{fill:#727272;}.am{clip-path:url(#f);}.an{clip-path:url(#g);}.ao{clip-path:url(#h);}.ap{clip-path:url(#i);}.aq{clip-path:url(#j);}.ar{fill:#fb3d4e;font-size:9px;font-family:Poppins-Regular, Poppins;letter-spacing:0.01em;}</style><clipPath id="a"><rect class="a" width="383.866" height="95.375" transform="translate(0)"/></clipPath><clipPath id="b"><path class="b" d="M0,0H0A40.424,40.424,0,0,1,40.424,40.424v7.83a9.063,9.063,0,0,1-9.063,9.063H0a0,0,0,0,1,0,0V0A0,0,0,0,1,0,0Z"/></clipPath><clipPath id="c"><path class="c" d="M-1488.389-749.363l-1.519,4.039.017.035a23.834,23.834,0,0,1-.86,13.935l-.633,1.581-9.484,18.422a10.261,10.261,0,0,1-3.976,4.878l-5.243,1.1a10.31,10.31,0,0,1-3.348.153,10.262,10.262,0,0,1-2.517-1.135,11.1,11.1,0,0,1-6.484-7.533.024.024,0,0,1,0-.021,11.054,11.054,0,0,1,.637-7.265l8.248-22.444c.991-2.962,4.079-4.887,5.976-6l1.333-.782,2.022-3.628Z" transform="translate(1522.78 754.026)"/></clipPath><clipPath id="d"><path class="d" d="M-948.666-573.845h-8.873l20.838,66.413a8.294,8.294,0,0,0,.526,1.518,6.362,6.362,0,0,0,2.658,2.363l1.135.632.97,3.575h17.534l-1.733-3.832,1.284-2.054c1.027-1.94.419-4.822-.285-6.7l-19.4-51.655A15.6,15.6,0,0,0-948.666-573.845Z" transform="translate(957.539 573.845)"/></clipPath><clipPath id="e"><path class="b" d="M-1543.421-946.581l-.977,5.5-11.523-1.047-1.45-.132-17.486-1.587-1.826-.166-32.667-2.966,2.815-16.424,32.037,8.539,1.826.487,16.664,4.44,1.431.384Z" transform="translate(1609.349 963.402)"/></clipPath><clipPath id="f"><path class="b" d="M-1314.959-902.524s-.137,2.087-.52,4.375a1.538,1.538,0,0,0,1.742,1.787l.042-.007c1.63-.3,1.544-4.669,1.5-5.556C-1312.264-903.19-1314.393-903.855-1314.959-902.524Z" transform="translate(1315.5 903.253)"/></clipPath><clipPath id="g"><path class="b" d="M-1290.377-896.992s-.153,2.33-.582,4.884a1.72,1.72,0,0,0,1.95,1.995l.047-.008c1.825-.334,1.728-5.212,1.676-6.2C-1287.361-897.734-1289.744-898.477-1290.377-896.992Z" transform="translate(1290.984 897.806)"/></clipPath><clipPath id="h"><path class="b" d="M-1265.828-891.644s-.161,2.546-.613,5.339a1.849,1.849,0,0,0,2.055,2.18l.049-.009c1.923-.365,1.821-5.7,1.766-6.779C-1262.649-892.456-1265.161-893.268-1265.828-891.644Z" transform="translate(1266.467 892.534)"/></clipPath><clipPath id="i"><path class="b" d="M-1237.68-885.288s-.161,2.546-.613,5.339a1.849,1.849,0,0,0,2.055,2.18l.049-.009c1.923-.365,1.821-5.7,1.766-6.779C-1234.5-886.1-1237.013-886.912-1237.68-885.288Z" transform="translate(1238.319 886.178)"/></clipPath><clipPath id="j"><path class="b" d="M-1254.182-854.5a52.235,52.235,0,0,0,5.027-8.175.719.719,0,0,0,0-.551c-.4-1-1.289-4.452-2.091-5.988a1.9,1.9,0,0,0-1.31-.988,1.531,1.531,0,0,0-1.753,1.215c-.4,1.6.857,4.907.857,4.907l-4.458,5.522Z" transform="translate(1257.908 870.226)"/></clipPath></defs><g transform="translate(-531 -463)"><g transform="translate(531 463)"><g transform="translate(0 0)"><circle class="e" cx="81.964" cy="81.964" r="81.964" transform="translate(214.648 115.915) rotate(-45)"/><path class="f" d="M-947.046,397.105a23.641,23.641,0,0,1,20.963,12.712,15.558,15.558,0,0,1,6.961-1.648c.35,0,.7.029,1.044.052a35.02,35.02,0,0,1-.224-3.88,33.911,33.911,0,0,1,33.914-33.914,33.918,33.918,0,0,1,33.474,28.5c.268-.007.537-.015.806-.015a17.8,17.8,0,0,1,16.822,11.981,12.041,12.041,0,0,1,2.6-.283,12.251,12.251,0,0,1,6.37,1.79,16.476,16.476,0,0,1,13.862-7.557,16.5,16.5,0,0,1,15.98,12.377,12.048,12.048,0,0,1,2.663-.313,11.813,11.813,0,0,1,9.422,4.67h-188.3c-.008-.277-.015-.553-.015-.828A23.645,23.645,0,0,1-947.046,397.105Z" transform="translate(1340.156 -341.181)"/><path class="g" d="M-696.147,460.811a5.971,5.971,0,0,1,5.815,4.621,3.832,3.832,0,0,1,1.7-.4,3.855,3.855,0,0,1,3.817,3.324H-701.9a5.964,5.964,0,0,1-.213-1.58A5.97,5.97,0,0,1-696.147,460.811Z" transform="translate(1283.279 -360.322)"/><path class="g" d="M-792.577,504.495a7.783,7.783,0,0,1,6.9,4.185,5.128,5.128,0,0,1,2.292-.542c.116,0,.231.01.344.017a11.392,11.392,0,0,1-.074-1.278,11.166,11.166,0,0,1,11.168-11.168,11.168,11.168,0,0,1,11.022,9.384c.089,0,.177,0,.266,0a5.86,5.86,0,0,1,5.54,3.945,3.951,3.951,0,0,1,.858-.093,4.031,4.031,0,0,1,2.1.59,5.425,5.425,0,0,1,4.565-2.488,5.434,5.434,0,0,1,5.262,4.075,3.964,3.964,0,0,1,.877-.1,3.889,3.889,0,0,1,3.1,1.538h-62c0-.091,0-.181,0-.273A7.786,7.786,0,0,1-792.577,504.495Z" transform="translate(1304.085 -367.713)"/><path class="f" d="M-1102.827,476.569a10.217,10.217,0,0,0-4.025.823,14.327,14.327,0,0,0-13.53-9.637,14.279,14.279,0,0,0-5.419,1.068A23.715,23.715,0,0,0-1149.189,449a23.871,23.871,0,0,0-2.785.169A33.814,33.814,0,0,0-1183,428.8a33.813,33.813,0,0,0-31.026,20.369,23.877,23.877,0,0,0-2.785-.169,23.714,23.714,0,0,0-23.3,19.3,14.309,14.309,0,0,0-3.878-.545,14.322,14.322,0,0,0-13,8.317,10.5,10.5,0,0,0-3.791-.715,10.482,10.482,0,0,0-5.939,1.837,18.649,18.649,0,0,0-17.807-13.11,18.632,18.632,0,0,0-16.475,9.928,14.435,14.435,0,0,0-8.331-2.64,14.488,14.488,0,0,0-11.838,6.133,10.474,10.474,0,0,0-6.355-2.148,10.532,10.532,0,0,0-10.532,10.532c0,.312.02.62.047.925h245.421A10.244,10.244,0,0,0-1102.827,476.569Z" transform="translate(1417.953 -369.307)"/><path class="f" d="M-1340.042,422.279a8.128,8.128,0,0,1,7.916,6.292,5.214,5.214,0,0,1,2.32-.541,5.247,5.247,0,0,1,5.195,4.526h-23.266a8.136,8.136,0,0,1-.29-2.15A8.127,8.127,0,0,1-1340.042,422.279Z" transform="translate(1420.095 -367.927)"/><path class="f" d="M-1427,463.778a5.633,5.633,0,0,1-.234-1.6c0-4.137,4.541-7.492,10.142-7.492,4.338,0,8.039,2.013,9.488,4.843a10.083,10.083,0,0,1,1.855-.17c3.342,0,6.174,1.61,7.156,3.838a5.944,5.944,0,0,1,1.242-.132,5.422,5.422,0,0,1,2.98.846,5.666,5.666,0,0,1,4.272-1.733,5.174,5.174,0,0,1,4.807,2.56,4.217,4.217,0,0,1,1.736-.364c1.837,0,3.326.616,3.326,1.974,0,.117,6.529.713,6.508.825h-65.7c-.017-.112,8.479-.951,8.479-1.067C-1430.941,464.467-1429.193,463.856-1427,463.778Z" transform="translate(1439.42 -374.79)"/></g><g class="h" transform="translate(149.514 171.833)"><g class="i" transform="translate(-0.145 5.319)"><path class="j" d="M-891.389-625.583c-12.128,0-16.46,21.306-30.221,21.306-14.654,0-35.3-48.874-55.582-48.874-21.043,0-32.883,47.3-52.981,47.3-11.667,0-25.4-24.969-40.652-24.969-15.478,0-26.887,33.725-46.293,33.725-8.851,0-12.682-6.432-21.807-6.432-12.591,0-21.326,13.922-30.682,35.47-6.61,15.223,5.544,19.94,24.256,19.94,24.257,0,256.815-.68,306.18-.68,31.121,0,46.628-5.276,44.635-14.138-1.906-8.476-8.845-18.516-12.822-23.914-11.366-15.428-17.038-21.365-24.95-21.365-8.739,0-11.609,9.649-21.831,9.649C-867.421-598.567-878.337-625.583-891.389-625.583Z" transform="translate(1171.426 653.15)"/><path class="j" d="M-368.157-553.15c-5.422,0-1.63,5.6,5.332,9.65,11.367,6.615,15.931,13.129,8.335,12.771-11.435-.539-.129,9.287,9.472,14.91,10.993,6.438,13.252,3.944,11.955-2.022-.664-3.055,2.657-4.623,4.541-5.726,1.8-1.055,1.65-2.567-2.383-2.567C-344.189-526.134-355.1-553.15-368.157-553.15Z" transform="translate(648.194 580.717)"/><path class="j" d="M-562.475-604.276c-14.654,0-35.3-48.874-55.582-48.874-9.854,0,1.574,7.3,10.816,12.681,3.87,2.252,3.581,5.72-1.963,7.168-7.207,1.881-5.429,5.927,2.736,10.108,9.345,4.785,18,8.738,17.287,12.773-.7,3.951-6.1,2.941-6.451,6.341-.318,3.119,11.638,6.065,15.363,15.524,2.432,6.175,9.53,4.787,9.934,0,.262-3.1,1.112-5.91,6.564-8.274C-557.464-599.566-555.145-604.276-562.475-604.276Z" transform="translate(812.291 653.15)"/><path class="j" d="M-843.906-547.183c-11.667,0-25.4-24.969-40.652-24.969-3.2,0-2.118,2.468,2.686,4.733,6.237,2.94,11.283,7.489,3.7,7.489-6.006,0-4.365,3.484-1.675,4.779,6.327,3.044,16.131,4.867,15.305,7.466-.636,2-10.742,2.826-2.368,9.166,8.146,6.167,26.7,12.615,24.706,3.752C-844.113-543.243-823.808-547.183-843.906-547.183Z" transform="translate(985.159 594.481)"/><path class="j" d="M-1058.222-455.783c-7.71-1.034-9.505-4.833-14.409-9.786-6.21-6.272-16.519-4.273-12.194-7.482a16.539,16.539,0,0,1,1.819-.1c9.124,0,12.957,6.431,21.807,6.431a19.311,19.311,0,0,0,10.15-3.112h0c3.791.866-8.1,6.12-1.857,7.157C-1042.091-460.883-1050.363-454.729-1058.222-455.783Z" transform="translate(1115.507 522.771)"/></g></g><line class="k" x2="481.606" transform="translate(106.555 266.815)"/><g transform="translate(364.152 89.331)"><g transform="translate(8.393 35.11)"><path class="l" d="M-956.226,498.7c-11.573,11.573-21.175,6.19-21.175,6.19l27.364-27.364S-944.653,487.122-956.226,498.7Z" transform="translate(977.401 -477.521)"/></g><g transform="translate(24.876 46.194)"><path class="l" d="M-933.86,511.921c-4.455,7.74-10.278,6.266-10.278,6.266l10.535-18.3S-929.4,504.182-933.86,511.921Z" transform="translate(944.138 -499.887)"/></g><g transform="translate(16.463)"><path class="l" d="M-956.384,406.667l14.6,35.84s-10.938,1.235-17.112-13.923S-956.384,406.667-956.384,406.667Z" transform="translate(961.115 -406.667)"/></g><g transform="translate(34.532 35.11)"><path class="l" d="M-896.036,504.885s-9.6,5.383-21.175-6.19-6.19-21.175-6.19-21.175Z" transform="translate(924.652 -477.521)"/></g><path class="m" d="M-904.2,497.873c-4.38-5.139-12.283-16.547-12.283-16.547l24.566,25.479S-899.818,503.012-904.2,497.873Z" transform="translate(955.062 -444.33)"/><g transform="translate(33.505 18.426)"><path class="n" d="M28.145,145.119H23.5A149.837,149.837,0,0,0,0,2.745l1.625-1.3L3.425,0A156.994,156.994,0,0,1,23.512,33.712,154.514,154.514,0,0,1,34.327,70.277a154.283,154.283,0,0,1,1.544,37.706A154.325,154.325,0,0,1,28.145,145.119Z" transform="translate(0.001 13.938)"/><path class="l" d="M-902.328,507.759c-1.616.688-2.423,1.024-4.039,1.712a162,162,0,0,0-20.356-34.744l3.425-2.745A152.476,152.476,0,0,1-902.328,507.759Z" transform="translate(926.723 -458.043)"/><path class="l" d="M-914.881,443.871l-9.069,21.534s-5.2-4.143-1.362-13.251S-914.881,443.871-914.881,443.871Z" transform="translate(926.724 -443.852)"/><path class="m" d="M-912.02,443.891l-7.8,18.55s-2.519-6.373-.34-12.227A9.987,9.987,0,0,1-912.02,443.891Z" transform="translate(923.863 -443.872)"/></g><g transform="translate(34.137 33.851)"><path class="l" d="M-895.913,484.565a25.449,25.449,0,0,1-9.74,1.719c-16.368,0-19.8-11.306-19.8-11.306h38.7S-888.188,481.4-895.913,484.565Z" transform="translate(925.448 -474.979)"/></g><g transform="translate(0 35.11)"><path class="l" d="M-972.408,494.706c-15.126,6.253-21.93-2.4-21.93-2.4l35.764-14.785S-957.283,488.452-972.408,494.706Z" transform="translate(994.338 -477.521)"/></g><g transform="translate(2.356 15.196)"><path class="l" d="M-956.149,457.237s-8.007,7.554-22.044-.864-11.145-19.039-11.145-19.039Z" transform="translate(989.584 -437.334)"/></g><path class="m" d="M-895.054,484.565l-28.692-9.586h37.857S-887.33,481.4-895.054,484.565Z" transform="translate(958.727 -441.128)"/><path class="m" d="M-940.7,441.145s-13.388-7.208-16.067-16.789a19.97,19.97,0,0,1,2.434-16.446Z" transform="translate(975.775 -407.294)"/></g><g transform="translate(193.305 134.3)"><g transform="translate(0 0)"><g transform="translate(150.999 40.148)"><g transform="translate(11.022)"><path class="o" d="M-812.131-600.832h-9.089a.22.22,0,0,1-.22-.22v-9.388a4.77,4.77,0,0,1,4.765-4.765,4.77,4.77,0,0,1,4.765,4.765v9.388A.22.22,0,0,1-812.131-600.832Zm-8.87-.44h8.65v-9.169a4.33,4.33,0,0,0-4.325-4.325A4.33,4.33,0,0,0-821-610.441Z" transform="translate(821.44 615.205)"/></g><g transform="translate(0 4.236)"><g class="p"><path class="q" d="M0,0H0A40.424,40.424,0,0,1,40.424,40.424v7.83a9.063,9.063,0,0,1-9.063,9.063H0a0,0,0,0,1,0,0V0A0,0,0,0,1,0,0Z"/><g transform="translate(-9.469 -8.911)"><path class="o" d="M-976.3-591.286h-31.361a.22.22,0,0,1-.22-.22v-66.008a.22.22,0,0,1,.22-.22,40.39,40.39,0,0,1,15.82,3.194,40.507,40.507,0,0,1,12.919,8.71,40.508,40.508,0,0,1,8.71,12.919,40.389,40.389,0,0,1,3.194,15.82v16.521A9.294,9.294,0,0,1-976.3-591.286Zm-31.141-.44H-976.3a8.853,8.853,0,0,0,8.843-8.843v-16.521a39.941,39.941,0,0,0-11.776-28.428,39.937,39.937,0,0,0-28.209-11.775Z" transform="translate(1007.876 657.733)"/></g></g></g><g transform="translate(33.028 38.7)"><path class="o" d="M-615.439-249.144H-621a.22.22,0,0,1-.22-.22v-13.514a.22.22,0,0,1,.22-.22h5.561a.22.22,0,0,1,.22.22v13.514A.22.22,0,0,1-615.439-249.144Zm-5.342-.44h5.122v-13.075h-5.122Z" transform="translate(621.22 263.098)"/></g><g transform="translate(32.191 37.264)"><rect class="r" width="7.415" height="6.279" transform="translate(0.22 0.22)"/><path class="o" d="M-620.982-269.436h-7.855v-6.719h7.855Zm-7.415-.44h6.975v-5.839H-628.4Z" transform="translate(628.837 276.155)"/></g></g><g transform="translate(0 0)"><g transform="translate(137.977 6.137)"><g transform="translate(1.251 23.201)"><path class="s" d="M-1010.52-713.566l-12.794,4.006-1.866.584-1.251,3.995-2.391,8.208,8.208,4.147,6.237-.476Z" transform="translate(1028.822 713.566)"/><path class="t" d="M-897.772-528.674l-.01.051.124-.084Z" transform="translate(912.184 549.024)"/><path class="u" d="M-1005.929-675.982s1.006.116,2.262.306l-4.105.305,0-.026Z" transform="translate(1010.086 680.113)"/><path class="u" d="M-998.2-675.506a7.854,7.854,0,0,1-1.141.773,13.974,13.974,0,0,1-6.3,2.061c-.5.039-.994.082-1.42.135l1.251-3.995,1.866-.584C-1001.367-676.609-998.1-675.865-998.2-675.506Z" transform="translate(1009.456 681.123)"/></g><g transform="translate(0.1 7.413)"><path class="v" d="M-1032.93-857.21s-3.824,2.215-5.885,13.231c-.6,3.195-.948,5.085.921,7.512,1.886,2.448,6.193,2.3,9.823,1.177a25.457,25.457,0,0,0,5.83-2.831c2.388-1.339,2.088-13.721,2.088-13.721Z" transform="translate(1039.292 857.21)"/></g><g transform="translate(2.148 12.345)"><g transform="translate(1.439 8.622)"><path class="w" d="M-1007.487-732.914a.161.161,0,0,1-.077-.181.161.161,0,0,1,.2-.116c.014,0,1.452.358,2.039-.6a.161.161,0,0,1,.222-.053.161.161,0,0,1,.053.222c-.712,1.162-2.326.762-2.394.744A.164.164,0,0,1-1007.487-732.914Z" transform="translate(1007.57 733.888)"/></g><path class="w" d="M-1020.562-804.9a.16.16,0,0,1-.062-.087c-.225-.779.57-2.128,1.34-3.432a13.783,13.783,0,0,0,.943-1.764c.219-.94-1.164-1.844-1.178-1.853a.161.161,0,0,1-.048-.223.161.161,0,0,1,.223-.049c.066.042,1.6,1.044,1.315,2.21a.2.2,0,0,1-.006.019,13.8,13.8,0,0,1-.97,1.823c-.7,1.187-1.494,2.533-1.308,3.179a.161.161,0,0,1-.11.2A.161.161,0,0,1-1020.562-804.9Z" transform="translate(1020.663 812.336)"/><g transform="translate(0.066 2.703)"><path class="u" d="M-1019.5-787.735a.5.5,0,0,1,.283.63.5.5,0,0,1-.544.425.5.5,0,0,1-.283-.63A.5.5,0,0,1-1019.5-787.735Z" transform="translate(1020.06 787.745)"/></g><g transform="translate(3.524 4.299)"><path class="w" d="M-986.388-771.722a.218.218,0,0,1-.129-.042,4.645,4.645,0,0,0-1.886-.586.22.22,0,0,1-.192-.158.219.219,0,0,1,.078-.236,2.557,2.557,0,0,1,2.487-.273.22.22,0,0,1,.11.291.22.22,0,0,1-.29.11h0a2.233,2.233,0,0,0-1.493-.069,3.933,3.933,0,0,1,1.446.566.22.22,0,0,1,.048.307A.22.22,0,0,1-986.388-771.722Z" transform="translate(988.604 773.224)"/></g></g><path class="x" d="M-971.43-909.565l-.869.536a16.016,16.016,0,0,1,.035,1.816c-.012.389-.032.828-.074,1.306l-.018.168c-.4,4.229-2.3,11.238-10.307,13.06-.071.018-.144.035-.218.05l-.192-5.806-.041-1.291,0-.109-.009-.215-.024-.737-.115-3.519s-.05-.383-.1-.976a.155.155,0,0,1,0-.038v0a.267.267,0,0,1-.006-.05c-.006-.074-.015-.153-.021-.236a24.237,24.237,0,0,1-.056-3.525c0-.006,0-.009,0-.009.021-.268.05-.527.091-.766a3.687,3.687,0,0,1,.286-1.005h-.068a32.222,32.222,0,0,1-4.536-.928h0a15.526,15.526,0,0,1-3.242-1.229l-.009,0a9.535,9.535,0,0,1-3.446-2.523,7.949,7.949,0,0,1-.486-.7c-.038-.059-.077-.121-.112-.18-.024-.038-.044-.074-.065-.112a9.031,9.031,0,0,1-.507-1.029c-.044-.1-.083-.2-.121-.307.041.1.083.2.124.3a14.894,14.894,0,0,1,5.665-5.532,6.569,6.569,0,0,0,1.5.259s0-.416.071-1a12.786,12.786,0,0,1,2.9-.766,9.279,9.279,0,0,0,3.239,2.364,14.4,14.4,0,0,1,4.789,3.354c.074.08.147.159.218.239a11.086,11.086,0,0,1,2.576,4.722s1.786.194,2.379-.967a3.017,3.017,0,0,1-.4,2.874,8.6,8.6,0,0,1,1.3.395A14.6,14.6,0,0,1-971.43-909.565Z" transform="translate(1000.561 924.658)"/><g transform="translate(16.993 5.358)"><path class="w" d="M-885.336-861.884a.161.161,0,0,1-.08-.114,13.19,13.19,0,0,1,2.7-10.188,17.409,17.409,0,0,1,3.777-3.7.161.161,0,0,1,.223.045.161.161,0,0,1-.045.223,17.073,17.073,0,0,0-3.7,3.632,12.872,12.872,0,0,0-2.633,9.933.161.161,0,0,1-.133.185A.161.161,0,0,1-885.336-861.884Z" transform="translate(885.59 875.911)"/></g><g transform="translate(15.501 18.665)"><g transform="translate(0 0.07)"><path class="v" d="M-898.628-753.2s4.524-2.154,5.94-.162a3.1,3.1,0,0,1-.024,3.179,4.645,4.645,0,0,1-4.97,1.977C-900.334-748.847-898.628-753.2-898.628-753.2Z" transform="translate(899.168 754.206)"/><g transform="translate(2.247 2.3)"><path class="w" d="M-878.645-732.322a.16.16,0,0,1-.077-.1.161.161,0,0,1,.115-.2l2.541-.66a.161.161,0,0,1,.2.115.161.161,0,0,1-.115.2l-2.541.66A.16.16,0,0,1-878.645-732.322Z" transform="translate(878.728 733.284)"/></g></g><g transform="translate(1.277)"><path class="w" d="M-887.471-748.624a.161.161,0,0,1-.082-.154.161.161,0,0,1,.174-.147c2.811.233,4.1-.68,4.695-1.488a3.45,3.45,0,0,0,.339-3.271c-.662-1.609-4.943-.406-4.986-.394a.161.161,0,0,1-.2-.111.161.161,0,0,1,.111-.2c.187-.054,4.6-1.293,5.373.581a3.78,3.78,0,0,1-.377,3.585c-.639.874-2.022,1.864-4.981,1.618A.161.161,0,0,1-887.471-748.624Z" transform="translate(887.553 754.839)"/></g></g><g transform="translate(0 7.352)"><path class="w" d="M-1033.346-834.889a8.6,8.6,0,0,1-4.738-1.222c-3.625-2.381-1.742-9.021-.616-12.988.107-.377.208-.732.3-1.059a26.219,26.219,0,0,1,3.974-7.607l.348.269a25.735,25.735,0,0,0-3.9,7.453c-.089.328-.19.684-.3,1.063-1.092,3.851-2.921,10.3.435,12.5,3.687,2.422,9.84.228,9.9.205l.15.413A18.083,18.083,0,0,1-1033.346-834.889Z" transform="translate(1040.204 857.764)"/></g></g><path class="c" d="M-1458.146-574.97l-26.619,5.387-21.409,12.534a10.715,10.715,0,0,0-.033,1.319.025.025,0,0,0,0,.021,10.359,10.359,0,0,0,7.976,9.62,10.3,10.3,0,0,0,3.344.222l5.334-.509,36.226-7.4Z" transform="translate(1592.973 619.54)"/><path class="s" d="M-1345.078-808.936l1.663-8.383,14.571,3.992-4.325,9.115Z" transform="translate(1449.547 835.253)"/><g transform="translate(84.938 24.891)"><g class="y"><path class="c" d="M-1488.389-749.363l-1.519,4.039.017.035a23.834,23.834,0,0,1-.86,13.935l-.633,1.581-9.484,18.422a10.261,10.261,0,0,1-3.976,4.878l-5.243,1.1a10.31,10.31,0,0,1-3.348.153,10.262,10.262,0,0,1-2.517-1.135,11.1,11.1,0,0,1-6.484-7.533.024.024,0,0,1,0-.021,11.054,11.054,0,0,1,.637-7.265l8.1-19.364c2.624-5.362,4.231-7.967,6.128-9.081l1.333-.782,2.022-3.628Z" transform="translate(1522.78 754.026)"/><g transform="translate(18.691 -0.727)"><path class="c" d="M-1352.5-755.588h-.006a.22.22,0,0,1-.214-.226l.122-4.614a.22.22,0,0,1,.225-.214.22.22,0,0,1,.214.226l-.122,4.614A.22.22,0,0,1-1352.5-755.588Z" transform="translate(1352.722 760.642)"/><g transform="translate(2.165 0.674)"><path class="c" d="M-1332.8-749.455h-.006a.22.22,0,0,1-.214-.226l.122-4.614a.219.219,0,0,1,.225-.214.22.22,0,0,1,.214.226l-.122,4.614A.22.22,0,0,1-1332.8-749.455Z" transform="translate(1333.023 754.509)"/></g><g transform="translate(4.33 1.348)"><path class="c" d="M-1313.1-743.322h-.006a.219.219,0,0,1-.214-.225l.122-4.614a.219.219,0,0,1,.225-.214.22.22,0,0,1,.214.226l-.122,4.614A.22.22,0,0,1-1313.1-743.322Z" transform="translate(1313.324 748.376)"/></g><g transform="translate(6.495 2.022)"><path class="c" d="M-1293.4-737.19h-.006a.22.22,0,0,1-.214-.226l.122-4.614a.218.218,0,0,1,.226-.214.22.22,0,0,1,.214.225l-.122,4.614A.22.22,0,0,1-1293.4-737.19Z" transform="translate(1293.625 742.243)"/></g><g transform="translate(8.66 2.696)"><path class="c" d="M-1273.707-731.057h-.006a.22.22,0,0,1-.214-.226l.122-4.614a.218.218,0,0,1,.226-.214.22.22,0,0,1,.214.226l-.122,4.614A.22.22,0,0,1-1273.707-731.057Z" transform="translate(1273.927 736.111)"/></g><g transform="translate(10.825 3.37)"><path class="c" d="M-1254.008-724.925h-.006a.22.22,0,0,1-.214-.226l.122-4.614a.22.22,0,0,1,.225-.214.22.22,0,0,1,.214.226l-.122,4.614A.22.22,0,0,1-1254.008-724.925Z" transform="translate(1254.228 729.979)"/></g><g transform="translate(12.99 4.044)"><path class="c" d="M-1234.309-718.792h-.006a.22.22,0,0,1-.214-.226l.122-4.614a.219.219,0,0,1,.226-.214.22.22,0,0,1,.214.226l-.122,4.614A.22.22,0,0,1-1234.309-718.792Z" transform="translate(1234.529 723.846)"/></g></g></g></g><g transform="translate(101.251 28.298)"><path class="z" d="M-1368.475-685.793a.223.223,0,0,1-.053-.007.22.22,0,0,1-.16-.267c.02-.082.448-1.024,6.871-11.584a29.076,29.076,0,0,0,4.418-14.121,20.016,20.016,0,0,0-.557-5.746l-16.244-5.074a.22.22,0,0,1-.144-.275.22.22,0,0,1,.276-.144l16.356,5.109a.22.22,0,0,1,.144.143,19.38,19.38,0,0,1,.609,6,29.513,29.513,0,0,1-4.481,14.335c-6.33,10.408-6.8,11.422-6.826,11.482A.22.22,0,0,1-1368.475-685.793Z" transform="translate(1374.355 723.02)"/></g><path class="c" d="M-1211.592-575.872l-16.986-.207a3.092,3.092,0,0,0-2.87,1.867l-8.541,19.79-9.241,42.1,47.28-3.864C-1199.99-557.358-1211.592-575.872-1211.592-575.872Z" transform="translate(1364.234 620.528)"/><g transform="translate(0 101.207)"><path class="aa" d="M-1960.563-11.775h-117.03l0-24.435,138.7-3.94v6.707A21.669,21.669,0,0,1-1960.563-11.775Z" transform="translate(2101.555 42.296)"/><path class="aa" d="M-1553.758-43.3l-72.035.212a19.659,19.659,0,0,0-18.525,26.1l22.041,50.3,22.582-7.913-14.577-39.92,38.943-.327a21.669,21.669,0,0,0,21.594-21.744Z" transform="translate(1716.877 45.095)"/><g transform="translate(71.072 1.603)"><path class="ab" d="M-1625.415,31.947a.22.22,0,0,1-.2-.132l-22.208-50.65-.006-.016a19.51,19.51,0,0,1-.877-9.511,19.9,19.9,0,0,1,3.437-8.414,19.905,19.905,0,0,1,6.82-6.008,19.509,19.509,0,0,1,9.272-2.294h72.066a.22.22,0,0,1,.22.22.22.22,0,0,1-.22.22h-72.066a19.087,19.087,0,0,0-15.734,8.118A19.086,19.086,0,0,0-1647.419-19l22.2,50.642a.22.22,0,0,1-.113.289A.218.218,0,0,1-1625.415,31.947Z" transform="translate(1648.944 45.079)"/></g><g transform="translate(0 0)"><path class="ac" d="M-2271.607-29.14h-23.98V-57.213a2.448,2.448,0,0,1,3.539-2.191l11.966,5.956h8.476Z" transform="translate(2295.587 59.664)"/><path class="ac" d="M-2268-57.184v0Z" transform="translate(2271.033 57.457)"/><path class="ac" d="M-2206.559-28.814v0Z" transform="translate(2216.344 32.205)"/><path class="ac" d="M-2181.794-16.275v0Z" transform="translate(2194.301 21.044)"/><path class="ac" d="M-2104.992-3.109v0Z" transform="translate(2125.94 9.325)"/><path class="ac" d="M-2125.289-3.109v0Z" transform="translate(2144.006 9.325)"/></g><g transform="translate(142.546 1.606)"><path class="ab" d="M-990.107-36.332a.22.22,0,0,1-.155-.064l-8.312-8.283a.22.22,0,0,1,0-.311.22.22,0,0,1,.311,0l8.312,8.283a.22.22,0,0,1,0,.311A.22.22,0,0,1-990.107-36.332Z" transform="translate(998.639 45.055)"/></g><g transform="translate(93.002 51.879)"><path class="ab" d="M-1441.464,432.34a.219.219,0,0,1-.063-.009.22.22,0,0,1-.147-.274l2.115-7.049-6.331-2.579a.22.22,0,0,1-.125-.275l2.348-6.81-5.61-2.571a.22.22,0,0,1-.108-.291.22.22,0,0,1,.291-.108l5.792,2.655a.22.22,0,0,1,.116.271l-2.345,6.8,6.323,2.576a.22.22,0,0,1,.128.267l-2.172,7.24A.22.22,0,0,1-1441.464,432.34Z" transform="translate(1449.406 -412.353)"/></g><g transform="translate(94.234 69.996)"><path class="ac" d="M-1415.237,577.2l7.871,22.652-26.517,9.214a2.448,2.448,0,0,1-3.232-2.624l1.7-13.258-2.782-8.006Z" transform="translate(1438.198 -577.195)"/><g transform="translate(1.188 19.644)"><rect class="ad" width="30.061" height="0.44" transform="translate(0 9.862) rotate(-19.151)"/></g><g transform="translate(1.918 18.929)"><rect class="ad" width="9.682" height="0.44" transform="translate(0 3.176) rotate(-19.151)"/></g><g transform="translate(2.326 16.358)"><rect class="ad" width="8.303" height="0.44" transform="translate(0 2.724) rotate(-19.151)"/></g><g transform="translate(0.922 2.652)"><rect class="ad" width="24.324" height="0.44" transform="translate(0 7.98) rotate(-19.151)"/></g><g transform="translate(1.655 4.76)"><rect class="ad" width="24.325" height="0.44" transform="translate(0 7.98) rotate(-19.151)"/></g></g></g><g transform="translate(147.063 44.694)"><g transform="translate(26.089 72.505)"><path class="s" d="M-720.171,87.669l2.782,9.605a3.9,3.9,0,0,0,3.744,2.814h23.6a1.063,1.063,0,0,0,.7-1.86,7.662,7.662,0,0,0-2.187-1.329,71.5,71.5,0,0,0-7.982-3.009,1.618,1.618,0,0,1-1.03-.857l-3.474-7.2Z" transform="translate(720.171 -85.837)"/><g transform="translate(5.328 8.908)"><path class="w" d="M-653.407,172.457h0l-18.064-.044a.22.22,0,0,1-.219-.22.22.22,0,0,1,.22-.219h0l18.064.044h0a.853.853,0,0,0,.861-.721.83.83,0,0,0-.527-.961,6.654,6.654,0,0,0-1.785-.4,23.892,23.892,0,0,1-4.5-.9c-2.712-.8-5.734-1.711-5.764-1.72a.22.22,0,0,1-.147-.274.22.22,0,0,1,.274-.147c.03.009,3.05.922,5.76,1.719a23.448,23.448,0,0,0,4.422.882,7.088,7.088,0,0,1,1.9.432,1.269,1.269,0,0,1,.8,1.452A1.291,1.291,0,0,1-653.407,172.457Z" transform="translate(671.694 -166.884)"/></g><g transform="translate(21.428 11.682)"><path class="w" d="M-522.051,194.1h0c-.01,0-1.033-.02-2.16-.068-.8-.034-1-1.078-.991-1.69a.22.22,0,0,1,.22-.217h0a.22.22,0,0,1,.217.222c0,.016,0,1.221.57,1.245,1.122.048,2.139.068,2.15.068a.22.22,0,0,1,.216.224A.22.22,0,0,1-522.051,194.1Z" transform="translate(525.206 -192.122)"/></g></g><path class="d" d="M-948.666-573.845h-8.873l20.838,66.413a8.294,8.294,0,0,0,.526,1.518,6.362,6.362,0,0,0,2.658,2.363l1.135.632.97,3.575h17.534l-1.733-3.832,1.284-2.054c1.027-1.94.419-4.822-.285-6.7l-19.4-51.655A15.6,15.6,0,0,0-948.666-573.845Z" transform="translate(957.539 573.845)"/><g class="ae"><path class="c" d="M-948.666-573.845h-8.873l20.838,66.413a8.294,8.294,0,0,0,.526,1.518,6.362,6.362,0,0,0,2.658,2.363l1.135.632.97,3.575h17.534l-1.733-3.832,1.284-2.054c1.027-1.94.419-4.822-.285-6.7l-19.4-51.655A15.6,15.6,0,0,0-948.666-573.845Z" transform="translate(957.539 573.845)"/><g transform="translate(26.848 70.707)"><path class="af" d="M-711.787,74.081a.22.22,0,0,1-.21-.157l-1.255-4.164a.22.22,0,0,1,.147-.274.22.22,0,0,1,.274.147l1.255,4.164a.22.22,0,0,1-.147.274A.219.219,0,0,1-711.787,74.081Z" transform="translate(713.261 -69.477)"/></g><g transform="translate(29.116 70.707)"><path class="af" d="M-691.156,74.081a.22.22,0,0,1-.21-.157l-1.255-4.164a.22.22,0,0,1,.147-.274.22.22,0,0,1,.274.147l1.255,4.164a.22.22,0,0,1-.147.274A.219.219,0,0,1-691.156,74.081Z" transform="translate(692.63 -69.477)"/></g><g transform="translate(31.383 70.707)"><path class="af" d="M-670.524,74.081a.22.22,0,0,1-.21-.157l-1.255-4.164a.22.22,0,0,1,.147-.274.22.22,0,0,1,.274.147l1.255,4.164a.22.22,0,0,1-.147.274A.22.22,0,0,1-670.524,74.081Z" transform="translate(671.999 -69.477)"/></g><g transform="translate(33.651 70.707)"><path class="af" d="M-649.893,74.081a.22.22,0,0,1-.21-.157l-1.255-4.164a.22.22,0,0,1,.147-.274.22.22,0,0,1,.274.147l1.255,4.164a.22.22,0,0,1-.147.274A.22.22,0,0,1-649.893,74.081Z" transform="translate(651.368 -69.477)"/></g><g transform="translate(35.918 70.707)"><path class="af" d="M-629.262,74.081a.22.22,0,0,1-.21-.157l-1.255-4.164a.22.22,0,0,1,.147-.274.22.22,0,0,1,.274.147l1.255,4.164a.22.22,0,0,1-.147.274A.22.22,0,0,1-629.262,74.081Z" transform="translate(630.736 -69.477)"/></g><g transform="translate(38.186 70.707)"><path class="af" d="M-608.63,74.081a.22.22,0,0,1-.21-.157L-610.1,69.76a.22.22,0,0,1,.147-.274.22.22,0,0,1,.274.147l1.255,4.164a.22.22,0,0,1-.147.274A.219.219,0,0,1-608.63,74.081Z" transform="translate(610.105 -69.477)"/></g><g transform="translate(40.454 70.707)"><path class="af" d="M-588,74.081a.22.22,0,0,1-.21-.157l-1.255-4.164a.22.22,0,0,1,.147-.274.22.22,0,0,1,.274.147l1.255,4.164a.22.22,0,0,1-.147.274A.219.219,0,0,1-588,74.081Z" transform="translate(589.473 -69.477)"/></g><g transform="translate(29.292 35.49)"><path class="z" d="M-685.789-240.456a5.246,5.246,0,0,1-5.24-5.24,5.246,5.246,0,0,1,5.24-5.24,5.246,5.246,0,0,1,5.24,5.24A5.246,5.246,0,0,1-685.789-240.456Zm0-10.04a4.806,4.806,0,0,0-4.8,4.8,4.806,4.806,0,0,0,4.8,4.8,4.806,4.806,0,0,0,4.8-4.8A4.806,4.806,0,0,0-685.789-250.5Z" transform="translate(691.029 250.936)"/></g><g transform="translate(28.988 36.612)"><path class="z" d="M-691.894-238.178a.22.22,0,0,1-.09-.019l-1.683-.751a.22.22,0,0,1-.129-.221.22.22,0,0,1,.167-.194l1.809-.434-1.082-.513a.22.22,0,0,1-.1-.293.22.22,0,0,1,.293-.1l1.645.78a.22.22,0,0,1,.125.221.22.22,0,0,1-.167.191l-1.786.429,1.093.488a.22.22,0,0,1,.111.29A.22.22,0,0,1-691.894-238.178Z" transform="translate(693.797 240.728)"/></g><g transform="translate(30.261 43.41)"><path class="z" d="M-680.551-176.042a.217.217,0,0,1-.1-.025.22.22,0,0,1-.093-.3l.566-1.084-1.755.42a.219.219,0,0,1-.235-.093.22.22,0,0,1,.008-.253l1.065-1.417a.22.22,0,0,1,.308-.044.22.22,0,0,1,.044.308l-.7.929,1.631-.39a.219.219,0,0,1,.225.079.219.219,0,0,1,.021.237l-.789,1.512A.22.22,0,0,1-680.551-176.042Z" transform="translate(682.206 178.878)"/></g></g><g transform="translate(10.799 32.961)"><path class="z" d="M-843.033-235.76a9.331,9.331,0,0,1-1.647-.119,5.913,5.913,0,0,1-4.69-3.909l-9.9-33.875a.22.22,0,0,1,.149-.273.22.22,0,0,1,.273.149c1.652,5.654,9.9,33.858,9.9,33.881a5.5,5.5,0,0,0,4.344,3.595,11.806,11.806,0,0,0,2.256.1c.261,0,.53-.009.793-.007q1.691,0,3.385.007t3.385.007h6.8a.22.22,0,0,1,.22.22.22.22,0,0,1-.22.22h-6.8q-1.693,0-3.386-.007t-3.385-.007c-.258,0-.526,0-.784.007C-842.569-235.764-842.8-235.76-843.033-235.76Z" transform="translate(859.281 273.946)"/></g></g><path class="c" d="M-1034.354-622l1.027-5.648s15.345.856,16.885.856l-.742,5.59Z" transform="translate(1172.974 666.431)"/><g transform="translate(138.4 44.208)"><path class="z" d="M-1026.224-576.6a42.671,42.671,0,0,1-9.969-1.233.22.22,0,0,1-.154-.27.219.219,0,0,1,.27-.154c.094.026,9.488,2.542,17.2.267a.22.22,0,0,1,.273.149.22.22,0,0,1-.148.273A26.66,26.66,0,0,1-1026.224-576.6Z" transform="translate(1036.354 578.268)"/></g><g transform="translate(140.996 38.675)"><path class="z" d="M-1012.519-622.155h-.026a.22.22,0,0,1-.192-.244l.713-6.018a.22.22,0,0,1,.244-.192.22.22,0,0,1,.192.244l-.713,6.018A.22.22,0,0,1-1012.519-622.155Z" transform="translate(1012.739 628.613)"/></g><g transform="translate(145.056 38.903)"><path class="z" d="M-975.582-619.822h-.017a.22.22,0,0,1-.2-.236l.475-6.275a.219.219,0,0,1,.236-.2.22.22,0,0,1,.2.236l-.475,6.275A.22.22,0,0,1-975.582-619.822Z" transform="translate(975.802 626.537)"/></g><g transform="translate(148.745 39.102)"><path class="z" d="M-942.018-617.938h-.014a.22.22,0,0,1-.205-.234l.409-6.341a.22.22,0,0,1,.234-.205.22.22,0,0,1,.205.234l-.409,6.342A.22.22,0,0,1-942.018-617.938Z" transform="translate(942.238 624.719)"/></g><g transform="translate(152.49 39.302)"><path class="z" d="M-907.936-616.7h-.02a.22.22,0,0,1-.2-.239l.513-5.761a.219.219,0,0,1,.238-.2.22.22,0,0,1,.2.238l-.513,5.762A.22.22,0,0,1-907.936-616.7Z" transform="translate(908.156 622.904)"/></g><g transform="translate(115.915 55.845)"><path class="z" d="M-1240.717-423.951a.217.217,0,0,1-.049-.005.22.22,0,0,1-.166-.263l10.8-47.994a.22.22,0,0,1,.263-.166.22.22,0,0,1,.166.263l-10.8,47.994A.22.22,0,0,1-1240.717-423.951Z" transform="translate(1240.937 472.385)"/></g><g transform="translate(129.646 6.01)"><path class="q" d="M-980.379-912.7a14.6,14.6,0,0,1-.121,2.113,15.364,15.364,0,0,1-.513,2.473c-.112.392-.245.784-.392,1.173l0,.012-.059.153-8.925-3.384-1.695-.642-.307-.118-.035-.012-.015-.006-4.3-1.633h0l-1.727-.657-.28-.106-1.235-.466-.009,0-5.072-1.925-.242-.091-.065-.026-.477-.18.062-.162c.147-.389.309-.772.486-1.141.212-.454.445-.89.693-1.312a0,0,0,0,1,0,0,14.894,14.894,0,0,1,5.665-5.532,13.639,13.639,0,0,1,1.574-.74,12.776,12.776,0,0,1,2.9-.766,11.964,11.964,0,0,1,5.983.648C-983.492-923.139-980.45-918.178-980.379-912.7Z" transform="translate(1017.963 925.809)"/><path class="o" d="M-1078.957-875.8l-.5,1.321-36.151-13.706a.675.675,0,0,1-.349-.886.733.733,0,0,1,.354-.4.6.6,0,0,1,.5-.035Z" transform="translate(1116.008 893.528)"/><g transform="translate(13.946 0.837)"><path class="o" d="M-968.424-901.668a.221.221,0,0,1-.045,0,.22.22,0,0,1-.17-.26,17.576,17.576,0,0,0-1.2-11.82,12.035,12.035,0,0,0-2.85-3.733c-4.781-1.044-8.872,1.188-11.465,3.248a24.084,24.084,0,0,0-4.57,4.828.22.22,0,0,1-.3.061.22.22,0,0,1-.061-.3,24.554,24.554,0,0,1,4.653-4.92c3.842-3.056,7.954-4.208,11.893-3.33a.221.221,0,0,1,.085.04,11.989,11.989,0,0,1,3,3.89,18,18,0,0,1,1.246,12.132A.22.22,0,0,1-968.424-901.668Z" transform="translate(989.124 918.19)"/></g><g transform="translate(24.727 1.118)"><path class="o" d="M-890.808-902.473a.219.219,0,0,1-.092-.02.22.22,0,0,1-.107-.292c.03-.064,2.994-6.457,5.529-12.711a.22.22,0,0,1,.286-.121.22.22,0,0,1,.121.286c-2.54,6.265-5.508,12.667-5.538,12.731A.22.22,0,0,1-890.808-902.473Z" transform="translate(891.028 915.634)"/></g><path class="o" d="M-847.56-918.518c-.133.293-.718.314-1.306.047s-.957-.721-.824-1.014.718-.314,1.306-.047S-847.427-918.811-847.56-918.518Z" transform="translate(878.985 920.388)"/></g><g transform="translate(66.582 0)"><g transform="translate(8.842 1.878)"><g class="ag"><path class="ah" d="M-1543.421-946.581l-.977,5.5-11.523-1.047-1.45-.132-17.486-1.587-1.826-.166-32.667-2.966,2.815-16.424,32.037,8.539,1.826.487,16.664,4.44,1.431.384Z" transform="translate(1609.349 963.402)"/><g transform="translate(33.62 7.124)"><path class="g" d="M-1303.242-883.5a.219.219,0,0,1-.178-.091.22.22,0,0,1,.05-.307c2.644-1.906,4.158-4.155,4.5-6.684.554-4.115-2.22-7.611-2.248-7.646a.22.22,0,0,1,.033-.309.22.22,0,0,1,.309.033,11.489,11.489,0,0,1,2.342,7.977c-.357,2.656-1.931,5.006-4.678,6.986A.22.22,0,0,1-1303.242-883.5Z" transform="translate(1303.462 898.587)"/></g><g transform="translate(51.526 9.865)"><path class="g" d="M-1140.32-858.662a.219.219,0,0,1-.183-.1.219.219,0,0,1,.062-.3c2.72-1.8,4.324-3.986,4.766-6.5.719-4.093-1.911-7.691-1.938-7.727a.22.22,0,0,1,.045-.307.22.22,0,0,1,.308.045,11.491,11.491,0,0,1,2.018,8.065c-.464,2.639-2.131,4.924-4.956,6.792A.218.218,0,0,1-1140.32-858.662Z" transform="translate(1140.54 873.644)"/></g></g></g><path class="w" d="M.735,0h0A.735.735,0,0,1,1.47.735V5.276a.735.735,0,0,1-.735.735h0A.735.735,0,0,1,0,5.276V.735A.735.735,0,0,1,.735,0Z" transform="translate(73.68 18.291) rotate(10.06)"/><g transform="translate(3.803 0) rotate(13)"><g transform="translate(0 0)"><g transform="translate(0.704 0.705)"><path class="ai" d="M6.421,15.5a5.365,5.365,0,0,1-1.124-.12C1.813,14.63-.519,10.6.1,6.4a7.993,7.993,0,0,1,2.644-5A5.533,5.533,0,0,1,7.539.121c3.484.746,5.816,4.775,5.2,8.981h0C12.186,12.852,9.472,15.5,6.421,15.5ZM6.405.352a5.4,5.4,0,0,0-3.5,1.335A7.629,7.629,0,0,0,.387,6.457c-.59,4.015,1.636,7.86,4.961,8.573s6.512-1.974,7.1-5.989S10.814,1.18,7.488.468A5.167,5.167,0,0,0,6.405.352Z"/></g><path class="ai" d="M7.126,16.906a6.054,6.054,0,0,1-1.247-.131C2.012,15.961-.576,11.566.11,6.977A8.676,8.676,0,0,1,3.044,1.526,6.215,6.215,0,0,1,8.367.132c3.867.814,6.454,5.209,5.768,9.8h0C13.523,14.021,10.512,16.906,7.126,16.906Zm5.548-7.283C13.217,5.99,12.131,13.254,12.674,9.622Zm.73.154h0Z"/></g></g><g transform="translate(5.469 3.253) rotate(13)"><g transform="translate(0 0)"><g transform="translate(0.472 0.472)"><path class="aj" d="M4.3,10.373a3.589,3.589,0,0,1-.752-.08C1.214,9.793-.347,7.1.067,4.281A5.349,5.349,0,0,1,1.836.936,3.7,3.7,0,0,1,5.047.081c2.332.5,3.893,3.2,3.479,6.011h0C8.157,8.6,6.341,10.373,4.3,10.373ZM4.287.236a3.61,3.61,0,0,0-2.339.893A5.106,5.106,0,0,0,.259,4.322C-.136,7.009,1.354,9.583,3.58,10.06S7.938,8.739,8.333,6.051,7.239.79,5.013.313A3.456,3.456,0,0,0,4.287.236Z"/></g><path class="aj" d="M4.77,11.316a4.054,4.054,0,0,1-.835-.087C1.347,10.684-.385,7.742.074,4.67A5.808,5.808,0,0,1,2.037,1.021,4.16,4.16,0,0,1,5.6.089c2.588.545,4.32,3.487,3.861,6.558h0C9.052,9.385,7.036,11.316,4.77,11.316ZM8.483,6.441C8.847,4.009,8.12,8.872,8.483,6.441Zm.489.1h0Z"/></g></g><g class="ak" transform="translate(7.634 7.481) rotate(13)"><g transform="translate(0 0)"><g transform="translate(0.169 0.169)"><path class="al" d="M1.538,3.713a1.285,1.285,0,0,1-.269-.029A1.859,1.859,0,0,1,.024,1.532,1.915,1.915,0,0,1,.657.335,1.325,1.325,0,0,1,1.806.029,1.859,1.859,0,0,1,3.052,2.181h0A1.653,1.653,0,0,1,1.538,3.713Zm0-3.628A1.292,1.292,0,0,0,.7.4a1.828,1.828,0,0,0-.6,1.143A1.775,1.775,0,0,0,1.281,3.6a1.518,1.518,0,0,0,1.7-1.435A1.775,1.775,0,0,0,1.794.112,1.238,1.238,0,0,0,1.535.084Z"/></g><path class="al" d="M1.707,4.05a1.451,1.451,0,0,1-.3-.031A2.025,2.025,0,0,1,.026,1.672,2.077,2.077,0,0,1,.729.365,1.489,1.489,0,0,1,2,.032,2.025,2.025,0,0,1,3.386,2.379h0A1.82,1.82,0,0,1,1.707,4.05ZM3.036,2.305C3.167,1.435,2.906,3.176,3.036,2.305Zm.175.037h0Z"/></g></g></g><g transform="translate(107.72 8.489)"><g class="am"><path class="s" d="M-1314.959-902.524s-.137,2.087-.52,4.375a1.538,1.538,0,0,0,1.742,1.787l.042-.007c1.63-.3,1.544-4.669,1.5-5.556C-1312.264-903.19-1314.393-903.855-1314.959-902.524Z" transform="translate(1315.5 903.253)"/><g transform="translate(0.072 4.018)"><path class="w" d="M-1312.593-863.331l-.027,0a.22.22,0,0,1-.191-.245c0-.011.134-1.094.2-2.044.03-.4-.369-.546-.541-.59-.4-.1-.813,0-.885.152a8.64,8.64,0,0,0-.373,2.288.216.216,0,0,1-.228.211.22.22,0,0,1-.211-.228,8.818,8.818,0,0,1,.413-2.457c.2-.421.863-.53,1.394-.392a1.02,1.02,0,0,1,.869,1.048c-.071.96-.2,2.054-.206,2.065A.22.22,0,0,1-1312.593-863.331Z" transform="translate(1314.846 866.694)"/></g></g></g><g transform="translate(110.414 9.088)"><g class="an"><path class="s" d="M-1290.377-896.992s-.153,2.33-.582,4.884a1.72,1.72,0,0,0,1.95,1.995l.047-.008c1.825-.334,1.728-5.212,1.676-6.2C-1287.361-897.734-1289.744-898.477-1290.377-896.992Z" transform="translate(1290.984 897.806)"/><g transform="translate(0.172 4.941)"><path class="w" d="M-1287.168-849.484l-.027,0a.22.22,0,0,1-.191-.245c0-.011.133-1.094.2-2.044.029-.4-.369-.546-.541-.59-.4-.1-.813,0-.884.152a8.627,8.627,0,0,0-.373,2.288.216.216,0,0,1-.228.211.22.22,0,0,1-.211-.228,8.812,8.812,0,0,1,.413-2.457c.2-.421.863-.53,1.394-.392a1.02,1.02,0,0,1,.869,1.049c-.071.96-.2,2.054-.206,2.065A.22.22,0,0,1-1287.168-849.484Z" transform="translate(1289.421 852.847)"/></g></g></g><g transform="translate(113.109 9.667)"><g class="ao"><path class="s" d="M-1265.828-891.644s-.161,2.546-.613,5.339a1.849,1.849,0,0,0,2.055,2.18l.049-.009c1.923-.365,1.821-5.7,1.766-6.779C-1262.649-892.456-1265.161-893.268-1265.828-891.644Z" transform="translate(1266.467 892.534)"/><g transform="translate(0.271 5.535)"><path class="w" d="M-1261.744-838.814l-.027,0a.22.22,0,0,1-.192-.245c0-.011.133-1.094.2-2.044.03-.4-.369-.546-.541-.59-.4-.1-.813,0-.885.152a8.631,8.631,0,0,0-.373,2.288.217.217,0,0,1-.228.211.22.22,0,0,1-.211-.228,8.8,8.8,0,0,1,.413-2.457c.2-.421.863-.53,1.394-.391a1.02,1.02,0,0,1,.869,1.048c-.071.96-.2,2.054-.206,2.065A.22.22,0,0,1-1261.744-838.814Z" transform="translate(1263.996 842.177)"/></g></g></g><g transform="translate(116.203 10.366)"><g class="ap"><path class="s" d="M-1237.68-885.288s-.161,2.546-.613,5.339a1.849,1.849,0,0,0,2.055,2.18l.049-.009c1.923-.365,1.821-5.7,1.766-6.779C-1234.5-886.1-1237.013-886.912-1237.68-885.288Z" transform="translate(1238.319 886.178)"/><g transform="translate(0.247 5.61)"><path class="w" d="M-1233.822-831.776l-.027,0a.22.22,0,0,1-.192-.245c0-.011.133-1.094.2-2.044.03-.4-.369-.546-.541-.59-.4-.1-.813,0-.885.152a8.639,8.639,0,0,0-.373,2.288.216.216,0,0,1-.228.211.22.22,0,0,1-.211-.228,8.809,8.809,0,0,1,.413-2.457c.2-.421.863-.53,1.394-.391a1.02,1.02,0,0,1,.869,1.048c-.071.96-.2,2.054-.205,2.065A.22.22,0,0,1-1233.822-831.776Z" transform="translate(1236.075 835.139)"/></g></g></g><g transform="translate(110.146 9.597)"><path class="w" d="M-1293.209-887.169h-.026a.22.22,0,0,1-.192-.244l.657-5.564a.221.221,0,0,1,.244-.193.22.22,0,0,1,.193.244l-.657,5.564A.22.22,0,0,1-1293.209-887.169Z" transform="translate(1293.429 893.172)"/></g><g transform="translate(112.865 9.897)"><path class="w" d="M-1268.465-883.621l-.031,0a.22.22,0,0,1-.187-.248l.9-6.387a.22.22,0,0,1,.248-.187.22.22,0,0,1,.187.248l-.9,6.387A.22.22,0,0,1-1268.465-883.621Z" transform="translate(1268.685 890.447)"/></g><g transform="translate(116.059 10.745)"><path class="w" d="M-1239.408-875.977h-.024a.22.22,0,0,1-.194-.243l.7-6.312a.221.221,0,0,1,.243-.194.22.22,0,0,1,.195.243l-.7,6.312A.22.22,0,0,1-1239.408-875.977Z" transform="translate(1239.628 882.728)"/></g><g transform="translate(114.05 12.119)"><g class="aq"><path class="s" d="M-1254.182-854.5a52.235,52.235,0,0,0,5.027-8.175.719.719,0,0,0,0-.551c-.4-1-1.289-4.452-2.091-5.988a1.9,1.9,0,0,0-1.31-.988,1.531,1.531,0,0,0-1.753,1.215c-.4,1.6.857,4.907.857,4.907l-4.458,5.522Z" transform="translate(1257.908 870.226)"/><g transform="translate(5.02 -0.451)"><path class="w" d="M-1210.69-871.189c-.423,0-.8-.1-.911-.4l-.032-.087a16.147,16.147,0,0,1-.6-2.385.22.22,0,0,1,.167-.262.22.22,0,0,1,.263.167,16.049,16.049,0,0,0,.583,2.33l.032.088c.066.18.935.137,1.756-.087a.22.22,0,0,1,.27.154.22.22,0,0,1-.154.27A5.732,5.732,0,0,1-1210.69-871.189Z" transform="translate(1212.238 874.332)"/></g></g><g transform="translate(0.138 0.173)"><path class="w" d="M-1256.434-857.262a.219.219,0,0,1-.1-.023.22.22,0,0,1-.1-.294,24.341,24.341,0,0,1,4.064-5.105c-1.329-4.323-.272-5.819-.226-5.881a.22.22,0,0,1,.307-.046.22.22,0,0,1,.047.306c-.016.023-.974,1.466.331,5.618a.22.22,0,0,1-.057.224,25.193,25.193,0,0,0-4.073,5.079A.219.219,0,0,1-1256.434-857.262Z" transform="translate(1256.654 868.655)"/></g></g><g transform="translate(152.558 44.514)"><path class="z" d="M-897.671-525.3a.219.219,0,0,1-.115-.033c-3.892-2.407-6.658-6.545-8.221-12.3a55.467,55.467,0,0,1-1.456-16.677,112.954,112.954,0,0,1,3.069-21.009.22.22,0,0,1,.268-.157.22.22,0,0,1,.157.269,112.463,112.463,0,0,0-3.055,20.923,55.024,55.024,0,0,0,1.442,16.539c1.534,5.64,4.234,9.689,8.028,12.036a.22.22,0,0,1,.071.3A.22.22,0,0,1-897.671-525.3Z" transform="translate(907.54 575.479)"/></g><g transform="translate(157.169 45.577)"><path class="z" d="M-864.667-533.274a.22.22,0,0,1-.215-.176c-1.342-6.633-.525-15.036.4-20.918a114.152,114.152,0,0,1,2.344-11.281.22.22,0,0,1,.27-.154.22.22,0,0,1,.153.27c-.053.193-5.28,19.416-2.735,32a.22.22,0,0,1-.172.259A.219.219,0,0,1-864.667-533.274Z" transform="translate(865.589 565.811)"/></g></g></g></g></g><text class="ar" transform="translate(1149.758 761.279)"><tspan x="0" y="0">t</tspan></text></g></svg>