<svg xmlns="http://www.w3.org/2000/svg" width="37.007" height="37.007" viewBox="0 0 37.007 37.007">
  <g id="XMLID_158_" opacity="0.78">
    <path id="XMLID_341_" d="M33.289,10.927h-.118V3.083A3.086,3.086,0,0,0,30.089,0H22.358a3.086,3.086,0,0,0-3.083,3.083v7.844h-.17a3.721,3.721,0,0,0-3.717,3.717v6.533H14.046v-1.41a1.99,1.99,0,0,0-1.988-1.988H7.77a1.99,1.99,0,0,0-1.988,1.988v1.41H3.289A3.292,3.292,0,0,0,0,24.466v9.252a3.292,3.292,0,0,0,3.289,3.289H16.539a3.276,3.276,0,0,0,2.26-.9,2.182,2.182,0,0,0,3.949-1.28v-.746h6.9v.746a2.183,2.183,0,1,0,4.366,0v-.817a3.723,3.723,0,0,0,2.994-3.646V14.644A3.721,3.721,0,0,0,33.289,10.927ZM22.358,1.446h7.731a1.639,1.639,0,0,1,1.637,1.637v.5h-11v-.5a1.639,1.639,0,0,1,1.637-1.637ZM20.721,5.023h11v5.9h-11ZM7.228,22.623H12.6V35.561H7.228Zm0-2.855a.543.543,0,0,1,.542-.542h4.289a.543.543,0,0,1,.542.542v1.41H7.228ZM1.446,33.718V24.466a1.846,1.846,0,0,1,1.446-1.8V35.517A1.846,1.846,0,0,1,1.446,33.718Zm2.891,1.843V22.623H5.782V35.561Zm9.709,0V22.623h1.446V35.561Zm2.891-.044V22.667a1.846,1.846,0,0,1,1.446,1.8v9.252A1.846,1.846,0,0,1,16.937,35.517Zm4.366-.694a.737.737,0,1,1-1.474,0v-.746H21.3Zm11.264,0a.737.737,0,1,1-1.474,0v-.746h1.474Zm2.994-4.464a2.274,2.274,0,0,1-2.272,2.272H19.828V24.466a3.293,3.293,0,0,0-2.995-3.275V14.644a2.274,2.274,0,0,1,2.272-2.272H33.289a2.274,2.274,0,0,1,2.272,2.272Z" fill="#fff"/>
    <path id="XMLID_393_" d="M312.434,285.723a2.468,2.468,0,0,0-3.491,0,2.468,2.468,0,0,0-3.491,3.491l3.1,3.1a.552.552,0,0,0,.781,0l3.1-3.1A2.468,2.468,0,0,0,312.434,285.723Z" transform="translate(-282.705 -264.401)" fill="#fff"/>
    <path id="XMLID_397_" d="M75.882,62.349a1.269,1.269,0,0,0,1.792,0l3.058-3.058a3.158,3.158,0,0,0-3.954-4.88,3.157,3.157,0,0,0-3.953,4.88Zm-2.035-6.5a1.711,1.711,0,0,1,2.421,0,.723.723,0,0,0,1.022,0,1.712,1.712,0,0,1,2.42,2.421L76.778,61.2,73.847,58.27a1.711,1.711,0,0,1,0-2.421Z" transform="translate(-66.703 -50.006)" fill="#fff"/>
    <path id="XMLID_398_" d="M276.685,216.731h12.256v1.682H276.685Z" transform="translate(-256.687 -201.066)" fill="#fff"/>
  </g>
</svg>
