<svg xmlns="http://www.w3.org/2000/svg" width="38.667" height="38.463" viewBox="0 0 38.667 38.463">
  <g id="destination" transform="translate(0.3 -1.061)" opacity="0.78">
    <g id="Group_10" data-name="Group 10" transform="translate(0 1.361)">
      <path id="Path_10" data-name="Path 10" d="M65.16,65.54a3.525,3.525,0,1,0-3.525,3.525A3.529,3.529,0,0,0,65.16,65.54Zm-3.525,1.3a1.3,1.3,0,1,1,1.3-1.3A1.3,1.3,0,0,1,61.635,66.837Z" transform="translate(-53.743 -57.457)" fill="#fff" stroke="#3f454a" stroke-width="0.6"/>
      <path id="Path_11" data-name="Path 11" d="M38.066,19.868a1.114,1.114,0,0,0-.7-.99L25.525,14.142A1.114,1.114,0,0,0,24,15.176V31.515a3.948,3.948,0,0,0-2.727,2.921H5.513a2.154,2.154,0,0,1,0-4.308h10.08a4.157,4.157,0,1,0,0-8.313H9.856L14.649,13.8a8.759,8.759,0,0,0,1.242-4.495A7.945,7.945,0,0,0,0,9.306v.028a8.763,8.763,0,0,0,1.211,4.443l5.721,9.716a1.119,1.119,0,0,0,.956.549h7.705a1.929,1.929,0,1,1,0,3.857H5.513a4.382,4.382,0,1,0,0,8.764H21.424a3.935,3.935,0,1,0,4.8-5.148V26.481l11.223-5.571a1.114,1.114,0,0,0,.618-1.043ZM3.131,12.647a6.533,6.533,0,0,1-.9-3.312V9.306a5.717,5.717,0,1,1,11.434,0,6.531,6.531,0,0,1-.926,3.351L7.9,20.745ZM26.818,35.289a1.707,1.707,0,1,1-1.71-1.707h.008A1.709,1.709,0,0,1,26.818,35.289Zm-.592-11.295V16.822l8,3.2Z" transform="translate(0 -1.361)" fill="#fff" stroke="#3f454a" stroke-width="0.6"/>
    </g>
  </g>
</svg>
