<svg xmlns="http://www.w3.org/2000/svg" width="23.642" height="16.851" viewBox="0 0 23.642 16.851">
  <g id="Group_7841" data-name="Group 7841" transform="translate(0.4 0.408)">
    <g id="Group_7835" data-name="Group 7835" transform="translate(0.955 0)">
      <path id="Path_6182" data-name="Path 6182" d="M689.215,832.163a1.64,1.64,0,0,1-1.461-.894l-1.426-2.792a1.047,1.047,0,0,1,.6-1.47l.354-.117a1.459,1.459,0,0,1,1.545.407l1.131,1.253,3.524-1.682-4.062-4.258a.984.984,0,0,1,.35-1.6l.8-.317a1.448,1.448,0,0,1,1.217.07l6.5,3.481a.97.97,0,0,0,.849.034l5.048-2.206a2.209,2.209,0,1,1,1.645,4.1l-16.056,5.888A1.63,1.63,0,0,1,689.215,832.163Zm-1.471-4.572a.685.685,0,0,0-.216.035l-.354.118a.272.272,0,0,0-.156.382l1.426,2.792a.865.865,0,0,0,1.067.418l16.056-5.888a1.434,1.434,0,1,0-1.068-2.66l-5.048,2.206a1.737,1.737,0,0,1-1.525-.061l-6.5-3.481a.674.674,0,0,0-.566-.033l-.8.318a.208.208,0,0,0-.128.15.2.2,0,0,0,.053.189l4.432,4.645a.387.387,0,0,1-.113.617l-4.268,2.037a.386.386,0,0,1-.455-.09l-1.324-1.468A.686.686,0,0,0,687.744,827.591Z" transform="translate(-686.213 -820.597)" fill="#464646" stroke="#464646" stroke-width="0.8"/>
    </g>
    <g id="Group_7836" data-name="Group 7836" transform="translate(0 15.268)">
      <path id="Path_6183" data-name="Path 6183" d="M674.336,1369.944H652.27a.388.388,0,1,1,0-.775h22.067a.388.388,0,1,1,0,.775Z" transform="translate(-651.882 -1369.169)" fill="#464646" stroke="#464646" stroke-width="0.8"/>
    </g>
  </g>
</svg>
