<svg xmlns="http://www.w3.org/2000/svg" width="34.041" height="37.084" viewBox="0 0 34.041 37.084">
  <g id="budget" transform="translate(-5.202 0.061)" opacity="0.78">
    <path id="_x31_6" d="M34.165,11.1A.582.582,0,0,1,33,11.1V1.688a1.713,1.713,0,0,1,.5-1.2h.008a1.663,1.663,0,0,1,1.2-.5H48.069a.576.576,0,0,1,.573.581.569.569,0,0,1-.573.573H34.705a.538.538,0,0,0-.385.164.526.526,0,0,0-.156.377V11.1Zm23.607-3.75a.577.577,0,0,1,1.155,0V35.269a1.705,1.705,0,0,1-1.7,1.7H34.706a1.7,1.7,0,0,1-1.2-.5H33.5v-.008a1.7,1.7,0,0,1-.5-1.2v-.647a.581.581,0,0,1,1.163,0v.647a.53.53,0,0,0,.156.385.538.538,0,0,0,.385.163H57.232a.559.559,0,0,0,.54-.548V7.355Z" transform="translate(-19.734 0)" fill="#fff" stroke="#fff" stroke-width="0.1"/>
    <path id="_x31_5" d="M7.185,43.7H18.526a1.934,1.934,0,0,1,1.924,1.932V62.193a1.934,1.934,0,0,1-1.924,1.932H7.185a1.941,1.941,0,0,1-1.933-1.932V45.637A1.936,1.936,0,0,1,7.185,43.7Zm11.341,1.163H7.185a.776.776,0,0,0-.778.77V62.193a.777.777,0,0,0,.778.778H18.526a.776.776,0,0,0,.77-.778V45.637A.769.769,0,0,0,18.526,44.867Z" transform="translate(0 -31.084)" fill="#fff" stroke="#fff" stroke-width="0.1"/>
    <path id="_x31_4" d="M15.67,52.661h8.352a.577.577,0,0,1,.581.573v3.357a.577.577,0,0,1-.581.573H15.67a.577.577,0,0,1-.581-.573V53.234A.576.576,0,0,1,15.67,52.661Zm7.779,1.155h-7.2V56.01h7.2Z" transform="translate(-6.995 -37.454)" fill="#fff" stroke="#fff" stroke-width="0.1"/>
    <path id="_x31_3" d="M15.67,72.815h3.005a.57.57,0,0,1,.573.573v2.948a.569.569,0,0,1-.573.573H15.67a.576.576,0,0,1-.581-.573V73.388A.576.576,0,0,1,15.67,72.815Zm2.424,1.155H16.251v1.785h1.842Z" transform="translate(-6.995 -51.786)" fill="#fff" stroke="#fff" stroke-width="0.1"/>
    <path id="_x31_2" d="M34.208,72.815h3a.577.577,0,0,1,.581.573v2.948a.576.576,0,0,1-.581.573h-3a.576.576,0,0,1-.581-.573V73.388A.577.577,0,0,1,34.208,72.815Zm2.424,1.155H34.782v1.785h1.851Z" transform="translate(-20.178 -51.786)" fill="#fff" stroke="#fff" stroke-width="0.1"/>
    <path id="_x31_1" d="M15.67,91.439h3.005a.57.57,0,0,1,.573.573V94.96a.57.57,0,0,1-.573.573H15.67a.577.577,0,0,1-.581-.573V92.012A.576.576,0,0,1,15.67,91.439Zm2.424,1.155H16.251v1.785h1.842Z" transform="translate(-6.995 -65.03)" fill="#fff" stroke="#fff" stroke-width="0.1"/>
    <path id="_x31_0" d="M34.208,91.439h3a.577.577,0,0,1,.581.573V94.96a.577.577,0,0,1-.581.573h-3a.577.577,0,0,1-.581-.573V92.012A.577.577,0,0,1,34.208,91.439Zm2.424,1.155H34.782v1.785h1.851Z" transform="translate(-20.178 -65.03)" fill="#fff" stroke="#fff" stroke-width="0.1"/>
    <path id="_x39_" d="M81.48,75.721a.57.57,0,0,1,.794-.163.579.579,0,0,1,.155.8l-6,8.983a.572.572,0,0,1-.95-.639Z" transform="translate(-49.869 -53.669)" fill="#fff" stroke="#fff" stroke-width="0.1"/>
    <path id="_x38_" d="M70.646,77.011A2.1,2.1,0,0,1,72.734,79.1v.172a2.092,2.092,0,0,1-4.184,0V79.1A2.093,2.093,0,0,1,70.646,77.011Zm0,1.155a.94.94,0,0,0-.942.933v.172a.938.938,0,0,0,1.875,0V79.1A.933.933,0,0,0,70.646,78.166Z" transform="translate(-45.013 -54.77)" fill="#fff" stroke="#fff" stroke-width="0.1"/>
    <path id="_x37_" d="M94.561,93.934a2.106,2.106,0,0,1,2.1,2.1V96.2a2.092,2.092,0,0,1-4.185,0V96.03A2.1,2.1,0,0,1,94.561,93.934Zm0,1.163a.933.933,0,0,0-.933.933V96.2a.938.938,0,0,0,1.875,0V96.03A.94.94,0,0,0,94.561,95.1Z" transform="translate(-62.025 -66.804)" fill="#fff" stroke="#fff" stroke-width="0.1"/>
    <path id="_x36_" d="M74.228,43.555l.2,2.825a.6.6,0,0,1-.229.5l-1.457,1.245a.572.572,0,0,1-.811-.066.321.321,0,0,1-.082-.123l-1.1-2.154a.581.581,0,0,1,.172-.72l2.358-1.916c.614-.491.934.148.942.41Zm-.966,2.62-.106-1.433L72,45.676l.557,1.1Z" transform="translate(-46.54 -30.559)" fill="#fff" stroke="#fff" stroke-width="0.1"/>
    <path id="_x35_" d="M61.765,37.2l-1.433-.1-.606.7,1.1.557Zm-1.646-1.269,2.825.2c.164.008.933.3.41.942l-1.908,2.358a.582.582,0,0,1-.729.172l-2.154-1.1a.494.494,0,0,1-.123-.074.583.583,0,0,1-.066-.819l1.245-1.458a.577.577,0,0,1,.5-.221Z" transform="translate(-37.679 -25.556)" fill="#fff" stroke="#fff" stroke-width="0.1"/>
    <path id="_x34_" d="M77.225.263a2.6,2.6,0,0,1,2.751.254A2.631,2.631,0,0,1,80.2,3.268,9.728,9.728,0,0,1,78.11,6.675L67.1,15.592a1.6,1.6,0,0,1-2.178-2.227L73.844,2.343A9.717,9.717,0,0,1,77.225.263ZM77.6,1.353a8.592,8.592,0,0,0-2.9,1.761L65.819,14.086c-.114.147.016.352.123.458s.295.229.442.148l11-8.909A8.469,8.469,0,0,0,79.108,2.9c.237-.7.311-1.31.049-1.572s-.876-.2-1.556.025Z" transform="translate(-42.217 -0.008)" fill="#fff" stroke="#fff" stroke-width="0.1"/>
    <path id="_x33_" d="M57.336,6.714l8.213,2.546a.585.585,0,0,1,.385.721.732.732,0,0,1-.123.221l-2.571,3.12a.571.571,0,0,1-.753.114L55.043,8.663a.573.573,0,0,1-.18-.794.653.653,0,0,1,.221-.2l.041-.016,1.736-.9a.6.6,0,0,1,.475-.033Zm7.058,3.4L57.18,7.877l-.68.352,6.174,3.963Z" transform="translate(-35.215 -4.756)" fill="#fff" stroke="#fff" stroke-width="0.1"/>
    <path id="_x32_" d="M94.8,34.842l-2.227-7.206-2.088,1.712,3.963,6.182Zm-1.384-8.361,2.547,8.213a.6.6,0,0,1-.025.475l-.925,1.777a.553.553,0,0,1-1,.041l-4.774-7.444a.571.571,0,0,1,.123-.753l3.12-2.571a.574.574,0,0,1,.933.261Z" transform="translate(-59.661 -18.546)" fill="#fff" stroke="#fff" stroke-width="0.1"/>
    <path id="_x31_" d="M105.471,9.4a.581.581,0,0,1-.385-.72A.573.573,0,0,1,105.8,8.3a1.993,1.993,0,0,1,.3.123,1.479,1.479,0,0,1,.278.18,1.74,1.74,0,0,1,.417.508.578.578,0,0,1-.237.778.571.571,0,0,1-.778-.237c-.016-.025-.033-.049-.057-.082l-.074-.074a.423.423,0,0,0-.082-.049A.506.506,0,0,0,105.471,9.4Z" transform="translate(-70.978 -5.888)" fill="#fff" stroke="#fff" stroke-width="0.1"/>
  </g>
</svg>
