<svg xmlns="http://www.w3.org/2000/svg" width="37.128" height="37.128" viewBox="0 0 37.128 37.128">
  <g id="location_1_" data-name="location (1)" transform="translate(0 -0.001)" opacity="0.78">
    <path id="Path_7" data-name="Path 7" d="M37.093,36.392,31.654,22.065a.544.544,0,0,0-.241-.281L25.62,18.521l1.691-2.682a10.334,10.334,0,1,0-17.493,0l1.691,2.682L5.716,21.784a.544.544,0,0,0-.242.281L.036,36.392a.544.544,0,0,0,.775.667l8.743-4.926L18.3,37.059a.544.544,0,0,0,.534,0l8.743-4.926,8.743,4.926a.544.544,0,0,0,.776-.667Zm-17.985-8.2a1.627,1.627,0,0,0,.835-.668L24.6,20.136l2.358,11.1-7.851,4.423Zm-8.37-12.93a9.245,9.245,0,1,1,15.653,0c-.073.115-7.239,11.479-7.364,11.675l0,.005a.543.543,0,0,1-.92,0c-.073-.115-7.253-11.5-7.363-11.677l0,0ZM6.421,22.635l5.07-2.856-.883,4.155a.544.544,0,1,0,1.064.226l.855-4.025,4.657,7.386a1.634,1.634,0,0,0,.836.667v7.466l-7.851-4.423,1.051-4.943a.544.544,0,0,0-1.064-.226L9.073,31.156,1.586,35.374Zm21.634,8.52L25.638,19.779l5.07,2.856,4.836,12.739Z" transform="translate(0)" fill="#fff"/>
    <path id="Path_8" data-name="Path 8" d="M185.466,65.983a5.983,5.983,0,1,0-5.983,5.983A5.989,5.989,0,0,0,185.466,65.983Zm-10.877,0a4.895,4.895,0,1,1,4.895,4.895A4.9,4.9,0,0,1,174.589,65.983Z" transform="translate(-160.919 -55.648)" fill="#fff"/>
    <path id="Path_9" data-name="Path 9" d="M211.115,93.807a3.807,3.807,0,1,0-3.807,3.807A3.811,3.811,0,0,0,211.115,93.807Zm-6.526,0a2.719,2.719,0,1,1,2.719,2.719A2.722,2.722,0,0,1,204.589,93.807Z" transform="translate(-188.744 -83.473)" fill="#fff"/>
  </g>
</svg>
